<!-- This is a placeholder for romantic dating background image -->
<!-- You can replace this with an actual romantic image later -->
<svg width="1920" height="1080" viewBox="0 0 1920 1080" fill="none" xmlns="http://www.w3.org/2000/svg">
<defs>
<linearGradient id="romantic-bg" x1="0%" y1="0%" x2="100%" y2="100%">
<stop offset="0%" style="stop-color:#FDF2F8;stop-opacity:1" />
<stop offset="25%" style="stop-color:#FCE7F3;stop-opacity:1" />
<stop offset="50%" style="stop-color:#FBCFE8;stop-opacity:1" />
<stop offset="75%" style="stop-color:#F9A8D4;stop-opacity:1" />
<stop offset="100%" style="stop-color:#F472B6;stop-opacity:1" />
</linearGradient>
</defs>
<rect width="1920" height="1080" fill="url(#romantic-bg)"/>
<!-- Hearts pattern -->
<g opacity="0.1">
<path d="M100 100c0-30 25-55 55-55s55 25 55 55c0 55-55 100-55 100s-55-45-55-100z" fill="#EC4899"/>
<path d="M300 200c0-20 15-35 35-35s35 15 35 35c0 35-35 65-35 65s-35-30-35-65z" fill="#EC4899"/>
<path d="M500 150c0-25 20-45 45-45s45 20 45 45c0 45-45 80-45 80s-45-35-45-80z" fill="#EC4899"/>
<!-- Add more hearts across the image -->
<path d="M800 300c0-30 25-55 55-55s55 25 55 55c0 55-55 100-55 100s-55-45-55-100z" fill="#EC4899"/>
<path d="M1200 100c0-20 15-35 35-35s35 15 35 35c0 35-35 65-35 65s-35-30-35-65z" fill="#EC4899"/>
<path d="M1500 250c0-25 20-45 45-45s45 20 45 45c0 45-45 80-45 80s-45-35-45-80z" fill="#EC4899"/>
</g>
</svg>
